<svg width="244" height="68" viewBox="0 0 244 68" fill="none" xmlns="http://www.w3.org/2000/svg">
<path d="M67.9941 67.9941H0V0H67.9941V67.9941ZM147.003 22.5625C152.45 22.5625 156.586 24.0251 159.41 26.9502C162.285 29.8251 163.723 33.8855 163.723 39.1309V54.792C163.723 55.7503 163.874 56.4315 164.177 56.835C164.53 57.188 165.084 57.3642 165.841 57.3643H167.278V63.7197C166.572 63.871 165.589 63.9463 164.328 63.9463C162.058 63.9463 160.243 63.4671 158.881 62.5088C157.519 61.5505 156.686 59.8861 156.384 57.5156C155.375 59.6339 153.635 61.3488 151.164 62.6602C148.693 63.9715 145.893 64.6279 142.766 64.6279C138.58 64.6279 135.226 63.6693 132.704 61.7529C130.233 59.8363 128.996 57.1374 128.996 53.6572C128.996 50.2276 130.031 47.5295 132.099 45.5625C134.217 43.5954 137.47 42.1826 141.858 41.3252L155.703 38.6777C155.703 32.474 152.803 29.3721 147.003 29.3721C144.431 29.3721 142.413 29.9514 140.95 31.1113C139.488 32.2714 138.479 33.9366 137.924 36.1055L129.678 35.5752C130.434 31.5403 132.301 28.363 135.276 26.043C138.303 23.7229 142.211 22.5625 147.003 22.5625ZM226.537 22.5625C230.219 22.5625 233.245 23.1933 235.615 24.4541C237.986 25.6646 239.777 27.2784 240.987 29.2959C242.198 31.3134 242.929 33.4826 243.182 35.8027L234.935 36.2559C234.783 34.3394 234.051 32.7006 232.74 31.3389C231.479 29.9771 229.361 29.2959 226.386 29.2959C223.763 29.2959 221.821 29.7998 220.56 30.8086C219.299 31.8173 218.669 33.1292 218.669 34.7432C218.669 36.5083 219.248 37.8451 220.408 38.7529C221.619 39.6103 223.863 40.2915 227.142 40.7959C231.227 41.4516 234.405 42.309 236.675 43.3682C238.995 44.3769 240.634 45.663 241.593 47.2266C242.551 48.7396 243.03 50.5805 243.03 52.749C243.03 56.5317 241.542 59.4575 238.566 61.5254C235.591 63.5933 231.707 64.6279 226.915 64.6279C221.064 64.6279 216.676 63.3666 213.751 60.8447C210.826 58.2725 209.212 54.9942 208.909 51.0098L217.155 50.6309C217.508 52.85 218.416 54.6154 219.879 55.9268C221.342 57.2381 223.687 57.8945 226.915 57.8945C229.437 57.8945 231.354 57.4906 232.665 56.6836C234.027 55.8766 234.708 54.5905 234.708 52.8252C234.708 51.8164 234.48 50.9838 234.026 50.3281C233.572 49.6726 232.69 49.1179 231.379 48.6641C230.068 48.1597 228.126 47.6805 225.554 47.2266C221.62 46.47 218.542 45.5869 216.323 44.5781C214.154 43.5189 212.616 42.2328 211.708 40.7197C210.8 39.1562 210.347 37.265 210.347 35.0459C210.347 31.4144 211.734 28.4383 214.508 26.1182C217.282 23.7478 221.292 22.5625 226.537 22.5625ZM177.917 29.1416C178.926 27.3763 180.49 25.8377 182.608 24.5264C184.727 23.215 187.173 22.5586 189.947 22.5586C193.427 22.5587 196.453 23.4162 199.025 25.1309C201.598 26.8457 203.565 29.2923 204.927 32.4697C206.339 35.5969 207.045 39.3046 207.045 43.5918C207.045 47.8789 206.339 51.6116 204.927 54.7891C203.565 57.916 201.598 60.3369 199.025 62.0518C196.453 63.7665 193.427 64.6239 189.947 64.624C187.123 64.624 184.626 64.019 182.457 62.8086C180.339 61.5982 178.725 59.8831 177.615 57.6641L177.388 63.7158H169.897V10H177.917V29.1416ZM100.171 56.2266H126.348V63.7158H92V10H100.171V56.2266ZM143.9 47C141.48 47.4539 139.765 48.1847 138.756 49.1934C137.798 50.1516 137.318 51.3874 137.318 52.9004C137.318 54.6151 137.899 55.9519 139.059 56.9102C140.269 57.818 141.934 58.2724 144.052 58.2725C147.683 58.2725 150.534 57.2388 152.602 55.1709C154.67 53.103 155.703 50.4793 155.703 47.3018V44.7295L143.9 47ZM188.736 29.5195C185.357 29.5195 182.709 30.7551 180.792 33.2266C178.875 35.698 177.917 39.1534 177.917 43.5918C177.917 47.9293 178.851 51.359 180.717 53.8809C182.633 56.4027 185.282 57.6641 188.661 57.6641C191.738 57.6639 194.183 56.4025 195.999 53.8809C197.815 51.359 198.723 47.9293 198.723 43.5918C198.723 39.1533 197.815 35.698 195.999 33.2266C194.234 30.7552 191.813 29.5195 188.736 29.5195Z" fill="#121212"/>
</svg>
