<svg width="539" height="68" viewBox="0 0 539 68" fill="none" xmlns="http://www.w3.org/2000/svg">
<rect width="67.9943" height="67.9943" fill="#121212"/>
<path d="M352.423 61.4274C349.693 61.4274 347.504 60.732 345.856 59.3412C344.259 57.9504 343.46 55.7354 343.46 52.6963V6.56836H351.651V51.9236C351.651 53.778 352.604 54.7052 354.51 54.7052H357.755V61.4274H352.423Z" fill="#121212"/>
<path d="M315.902 62.3545C311.627 62.3545 308.201 61.3758 305.626 59.4184C303.102 57.461 301.84 54.7052 301.84 51.1509C301.84 47.6482 302.896 44.8924 305.008 42.8835C307.171 40.8745 310.494 39.4322 314.975 38.5566L329.115 35.8522C329.115 29.5164 326.153 26.3485 320.229 26.3485C317.602 26.3485 315.542 26.9409 314.048 28.1256C312.554 29.3104 311.524 31.0102 310.957 33.2252L302.535 32.6843C303.308 28.5635 305.214 25.3183 308.253 22.9488C311.344 20.5793 315.336 19.3945 320.229 19.3945C325.792 19.3945 330.016 20.8883 332.901 23.876C335.837 26.8121 337.305 30.9587 337.305 36.3158V52.3099C337.305 53.2886 337.46 53.984 337.769 54.3961C338.129 54.7567 338.696 54.937 339.468 54.937H340.937V61.4273C340.215 61.5819 339.211 61.6591 337.923 61.6591C335.605 61.6591 333.751 61.1698 332.36 60.1911C330.969 59.2124 330.119 57.5125 329.81 55.0915C328.78 57.255 327.003 59.0063 324.479 60.3456C321.955 61.6849 319.096 62.3545 315.902 62.3545ZM317.216 55.8642C320.925 55.8642 323.835 54.8082 325.947 52.6963C328.059 50.5843 329.115 47.9058 329.115 44.6606V42.0335L317.061 44.3515C314.589 44.8151 312.837 45.562 311.807 46.5922C310.828 47.5709 310.339 48.833 310.339 50.3783C310.339 52.1296 310.931 53.4947 312.116 54.4734C313.353 55.4006 315.052 55.8642 317.216 55.8642Z" fill="#121212"/>
<path d="M240.72 61.4273V20.3217H248.215L248.37 27.3529C249.4 24.8804 250.919 22.9488 252.928 21.558C254.937 20.1157 257.229 19.3945 259.805 19.3945C262.844 19.3945 265.394 20.1414 267.454 21.6352C269.566 23.1291 271.06 25.2153 271.936 27.8938C272.863 25.1637 274.331 23.0776 276.34 21.6352C278.4 20.1414 280.899 19.3945 283.835 19.3945C288.162 19.3945 291.51 20.7596 293.879 23.4896C296.249 26.1682 297.434 30.0058 297.434 35.0023V61.4273H289.243V37.0112C289.243 29.8512 286.642 26.2712 281.44 26.2712C278.864 26.2712 276.804 27.2499 275.258 29.2073C273.713 31.1648 272.94 33.8691 272.94 37.3203V61.4273H265.136V37.3203C265.136 33.8691 264.544 31.1648 263.359 29.2073C262.226 27.2499 260.269 26.2712 257.487 26.2712C254.86 26.2712 252.774 27.2499 251.228 29.2073C249.683 31.1648 248.91 33.8691 248.91 37.3203V61.4273H240.72Z" fill="#121212"/>
<path d="M224.362 61.427V20.3214H232.552V61.427H224.362ZM224.207 14.3719V6.18164H232.706V14.3719H224.207Z" fill="#121212"/>
<path d="M183.027 61.4273V20.3217H190.522L190.677 27.5075C191.758 24.6744 193.407 22.614 195.622 21.3262C197.837 20.0384 200.361 19.3945 203.194 19.3945C206.233 19.3945 208.783 20.0899 210.843 21.4807C212.904 22.82 214.449 24.6744 215.479 27.0439C216.561 29.3619 217.102 32.0147 217.102 35.0023V61.4273H208.912V37.4748C208.912 33.8691 208.293 31.1132 207.057 29.2073C205.872 27.2499 203.838 26.2712 200.953 26.2712C198.017 26.2712 195.647 27.2499 193.845 29.2073C192.093 31.1132 191.218 33.8691 191.218 37.4748V61.4273H183.027Z" fill="#121212"/>
<path d="M166.669 61.427V20.3214H174.859V61.427H166.669ZM166.514 14.3719V6.18164H175.013V14.3719H166.514Z" fill="#121212"/>
<path d="M104 61.4274V6.56836H115.436L131.739 51.6146L148.042 6.56836H159.478V61.4274H151.133V21.2489L136.375 61.3501H127.103L112.345 21.2489V61.4274H104Z" fill="#121212"/>
<path d="M518.216 62.3546C514.713 62.3546 511.674 61.4789 509.099 59.7275C506.523 57.9761 504.54 55.5036 503.149 52.3099C501.758 49.0648 501.063 45.253 501.063 40.8746C501.063 36.4961 501.758 32.7101 503.149 29.5164C504.54 26.2712 506.523 23.773 509.099 22.0216C511.674 20.2702 514.713 19.3946 518.216 19.3946C521.049 19.3946 523.573 19.9869 525.788 21.1717C528.003 22.3564 529.677 24.0048 530.81 26.1167V6.56836H539.001V61.4274H531.351L531.12 55.2461C529.986 57.5125 528.261 59.2639 525.943 60.5002C523.676 61.7364 521.101 62.3546 518.216 62.3546ZM520.38 55.2461C523.728 55.2461 526.303 53.9841 528.106 51.46C529.909 48.936 530.81 45.4075 530.81 40.8746C530.81 36.2901 529.909 32.7616 528.106 30.2891C526.303 27.7651 523.728 26.503 520.38 26.503C517.083 26.503 514.456 27.7908 512.498 30.3664C510.541 32.8904 509.562 36.3931 509.562 40.8746C509.562 45.253 510.541 48.7557 512.498 51.3828C514.456 53.9583 517.083 55.2461 520.38 55.2461Z" fill="#121212"/>
<path d="M462.731 61.4273V20.3217H470.226L470.38 27.5075C471.462 24.6744 473.11 22.614 475.325 21.3262C477.54 20.0384 480.064 19.3945 482.897 19.3945C485.937 19.3945 488.486 20.0899 490.547 21.4807C492.607 22.82 494.153 24.6744 495.183 27.0439C496.264 29.3619 496.805 32.0147 496.805 35.0023V61.4273H488.615V37.4748C488.615 33.8691 487.997 31.1132 486.761 29.2073C485.576 27.2499 483.541 26.2712 480.657 26.2712C477.721 26.2712 475.351 27.2499 473.548 29.2073C471.797 31.1132 470.921 33.8691 470.921 37.4748V61.4273H462.731Z" fill="#121212"/>
<path d="M446.372 61.427V20.3214H454.563V61.427H446.372ZM446.218 14.3719V6.18164H454.717V14.3719H446.218Z" fill="#121212"/>
<path d="M383.704 61.4274V6.56836H395.14L411.443 51.6146L427.746 6.56836H439.181V61.4274H430.836V21.2489L416.079 61.3501H406.807L392.049 21.2489V61.4274H383.704Z" fill="#121212"/>
</svg>
