<svg width="291" height="68" viewBox="0 0 291 68" fill="none" xmlns="http://www.w3.org/2000/svg">
<path d="M67.9941 67.9941H0V0H67.9941V67.9941ZM111.21 9C115.185 9 118.595 9.73594 121.441 11.208C124.287 12.6801 126.52 14.6916 128.14 17.2432C129.759 19.7946 130.765 22.7145 131.157 26.002L122.987 26.4443C122.595 23.4513 121.392 20.9976 119.381 19.084C117.418 17.1703 114.645 16.2129 111.063 16.2129C108.021 16.2129 105.616 16.9247 103.85 18.3477C102.132 19.7216 101.274 21.5621 101.274 23.8682C101.274 25.3892 101.618 26.6408 102.305 27.6221C103.041 28.6033 104.317 29.4865 106.132 30.2715C107.996 31.0075 110.622 31.7676 114.008 32.5527C118.522 33.5832 122.104 34.8598 124.754 36.3809C127.403 37.8529 129.292 39.5948 130.421 41.6064C131.598 43.6182 132.187 45.8997 132.188 48.4512C132.188 51.5425 131.378 54.2416 129.759 56.5479C128.189 58.805 125.98 60.5467 123.134 61.7734C120.288 63.0001 116.975 63.6133 113.197 63.6133C109.027 63.6132 105.396 62.853 102.305 61.332C99.2624 59.8109 96.8573 57.7007 95.0908 55.002C93.3245 52.3033 92.2944 49.1629 92 45.5811L100.17 45.0654C100.661 48.6964 101.986 51.4933 104.145 53.4561C106.353 55.4188 109.419 56.4004 113.345 56.4004C116.73 56.4004 119.356 55.7631 121.221 54.4873C123.085 53.2115 124.018 51.346 124.018 48.8926C124.018 47.4207 123.649 46.1207 122.913 44.9922C122.226 43.8146 120.877 42.7594 118.865 41.8271C116.902 40.8458 114.007 39.8893 110.18 38.957C106.009 37.9757 102.672 36.8712 100.17 35.6445C97.6676 34.3689 95.8522 32.8232 94.7236 31.0078C93.6441 29.1432 93.1035 26.8609 93.1035 24.1621C93.1035 21.1691 93.8155 18.5442 95.2383 16.2871C96.7104 13.9809 98.7963 12.1899 101.495 10.9141C104.194 9.63837 107.432 9.00005 111.21 9ZM271.606 22.3984C275.336 22.3984 278.599 23.2573 281.396 24.9746C284.192 26.6429 286.352 28.9979 287.873 32.04C289.394 35.0823 290.154 38.6895 290.154 42.8604C290.154 47.031 289.394 50.6375 287.873 53.6797C286.352 56.722 284.192 59.1019 281.396 60.8193C278.599 62.4876 275.336 63.3223 271.606 63.3223C267.877 63.3223 264.614 62.4876 261.817 60.8193C259.02 59.1019 256.861 56.722 255.34 53.6797C253.819 50.6375 253.059 47.031 253.059 42.8604C253.059 38.6895 253.819 35.0823 255.34 32.04C256.861 28.9979 259.021 26.6429 261.817 24.9746C264.614 23.2572 267.877 22.3984 271.606 22.3984ZM170.322 46.4658C170.322 49.9988 170.935 52.6002 172.162 54.2686C173.389 55.9368 175.254 56.7705 177.756 56.7705C180.602 56.7705 182.81 55.8631 184.38 54.0479C185.999 52.1832 186.81 49.5818 186.81 46.2451V23.2812H194.611V62.4385H187.324L187.251 56.0352C185.141 60.8928 181.19 63.3213 175.4 63.3213C171.426 63.3212 168.286 62.0213 165.979 59.4209C163.673 56.8202 162.521 53.1637 162.521 48.4531V23.2812H170.322V46.4658ZM234.958 62.4365H227.672L227.451 56.5479C226.372 58.7068 224.728 60.3751 222.52 61.5527C220.361 62.7304 217.907 63.3193 215.159 63.3193C211.823 63.3193 208.927 62.4857 206.474 60.8174C204.02 59.1491 202.132 56.7932 200.807 53.751C199.482 50.6596 198.819 47.0283 198.819 42.8574C198.819 38.6867 199.482 35.0803 200.807 32.0381C202.131 28.9468 204.02 26.5668 206.474 24.8984C208.927 23.2301 211.822 22.3955 215.159 22.3955C217.858 22.3955 220.262 22.9603 222.372 24.0889C224.482 25.2175 226.077 26.788 227.156 28.7998V10.1777H234.958V62.4365ZM148.223 23.2803H158.601V29.6846H148.223V51.25C148.223 53.0655 148.615 54.3169 149.4 55.0039C150.186 55.6908 151.388 56.0342 153.007 56.0342H158.601V62.4375H151.313C147.585 62.4374 144.837 61.6037 143.07 59.9355C141.304 58.2181 140.421 55.519 140.421 51.8389V29.6846H134.459V23.2803H140.421V14.0801H148.223V23.2803ZM248.856 62.4365H241.054V23.2803H248.856V62.4365ZM271.606 29.1699C268.319 29.1699 265.743 30.3972 263.878 32.8506C262.063 35.2549 261.155 38.5916 261.155 42.8604C261.155 47.1781 262.063 50.539 263.878 52.9434C265.743 55.3477 268.319 56.5508 271.606 56.5508C274.943 56.5508 277.519 55.3477 279.335 52.9434C281.15 50.539 282.059 47.1781 282.059 42.8604C282.059 38.5916 281.15 35.2549 279.335 32.8506C277.519 30.3971 274.943 29.1699 271.606 29.1699ZM217.22 29.168C214.079 29.168 211.576 30.3943 209.712 32.8477C207.847 35.252 206.915 38.5887 206.915 42.8574C206.915 47.0283 207.847 50.3657 209.712 52.8682C211.576 55.3215 214.079 56.5478 217.22 56.5479C220.409 56.5479 222.863 55.3457 224.58 52.9414C226.297 50.537 227.156 47.1755 227.156 42.8574C227.156 38.4905 226.297 35.1297 224.58 32.7744C222.863 30.37 220.409 29.168 217.22 29.168ZM249.003 17.6123H240.907V9.81055H249.003V17.6123Z" fill="#121212"/>
</svg>
